<svg width="51" height="64" viewBox="0 0 51 64" fill="none" xmlns="http://www.w3.org/2000/svg">
<g filter="url(#filter0_d_430_740)">
<rect x="11.8501" y="8" width="33.6329" height="43.1894" rx="3" transform="rotate(9.72332 11.8501 8)" fill="white"/>
</g>
<rect x="12.3135" y="26.6921" width="24.0396" height="2.77958" rx="1.38979" transform="rotate(9.72332 12.3135 26.6921)" fill="#1B2B42"/>
<rect x="11.4604" y="33.3142" width="24.0396" height="2.77958" rx="1.38979" transform="rotate(9.72332 11.4604 33.3142)" fill="#1B2B42"/>
<rect x="14.5591" y="15.2324" width="13.6199" height="2.77958" rx="1.38979" transform="rotate(9.72332 14.5591 15.2324)" fill="#1B2B42"/>
<rect x="10.3149" y="39.9907" width="11.1734" height="2.77958" rx="1.38979" transform="rotate(9.72332 10.3149 39.9907)" fill="#1B2B42"/>
<g filter="url(#filter1_d_430_740)">
<rect x="4" y="10.5017" width="33.6329" height="43.1894" rx="3" fill="#F85575"/>
</g>
<rect x="9" y="30.9521" width="24.0396" height="2.77958" rx="1.38979" fill="white"/>
<rect x="9" y="19" width="13.6199" height="3.3355" rx="1.66775" fill="white"/>
<path d="M9.27588 38.1791C9.27588 37.4115 9.89811 36.7893 10.6657 36.7893H19.0594C19.827 36.7893 20.4492 37.4115 20.4492 38.1791V38.1791C20.4492 38.9467 19.827 39.5689 19.0594 39.5689H10.6657C9.89811 39.5689 9.27588 38.9467 9.27588 38.1791V38.1791Z" fill="white"/>
<defs>
<filter id="filter0_d_430_740" x="5.01904" y="8.46313" width="45.5176" height="54.323" filterUnits="userSpaceOnUse" color-interpolation-filters="sRGB">
<feFlood flood-opacity="0" result="BackgroundImageFix"/>
<feColorMatrix in="SourceAlpha" type="matrix" values="0 0 0 0 0 0 0 0 0 0 0 0 0 0 0 0 0 0 127 0" result="hardAlpha"/>
<feOffset dx="4" dy="5"/>
<feGaussianBlur stdDeviation="1"/>
<feColorMatrix type="matrix" values="0 0 0 0 0 0 0 0 0 0 0 0 0 0 0 0 0 0 0.25 0"/>
<feBlend mode="normal" in2="BackgroundImageFix" result="effect1_dropShadow_430_740"/>
<feBlend mode="normal" in="SourceGraphic" in2="effect1_dropShadow_430_740" result="shape"/>
</filter>
<filter id="filter1_d_430_740" x="4" y="10.5017" width="39.6328" height="50.1895" filterUnits="userSpaceOnUse" color-interpolation-filters="sRGB">
<feFlood flood-opacity="0" result="BackgroundImageFix"/>
<feColorMatrix in="SourceAlpha" type="matrix" values="0 0 0 0 0 0 0 0 0 0 0 0 0 0 0 0 0 0 127 0" result="hardAlpha"/>
<feOffset dx="4" dy="5"/>
<feGaussianBlur stdDeviation="1"/>
<feColorMatrix type="matrix" values="0 0 0 0 0 0 0 0 0 0 0 0 0 0 0 0 0 0 0.25 0"/>
<feBlend mode="normal" in2="BackgroundImageFix" result="effect1_dropShadow_430_740"/>
<feBlend mode="normal" in="SourceGraphic" in2="effect1_dropShadow_430_740" result="shape"/>
</filter>
</defs>
</svg>
