<svg width="35" height="35" viewBox="0 0 35 35" fill="none" xmlns="http://www.w3.org/2000/svg">
<path d="M30.295 26.25C31.3877 26.25 32.2569 25.5623 33.0373 24.6008C34.6348 22.6325 32.0119 21.0596 31.0115 20.2892C29.9945 19.5061 28.8591 19.0625 27.7078 18.9583M26.2495 16.0417C28.263 16.0417 29.8953 14.4094 29.8953 12.3958C29.8953 10.3823 28.263 8.75 26.2495 8.75" stroke="#2A353D" stroke-width="1.5" stroke-linecap="round"/>
<path d="M4.7042 26.25C3.61146 26.25 2.74231 25.5623 1.96193 24.6008C0.364387 22.6325 2.98732 21.0596 3.9877 20.2892C5.00464 19.5061 6.14011 19.0625 7.29134 18.9583M8.02051 16.0417C6.00697 16.0417 4.37467 14.4094 4.37467 12.3958C4.37467 10.3823 6.00697 8.75 8.02051 8.75" stroke="#2A353D" stroke-width="1.5" stroke-linecap="round"/>
<path d="M11.7886 22.037C10.2985 22.9584 6.39153 24.8398 8.77111 27.194C9.93352 28.344 11.2281 29.1665 12.8558 29.1665H22.1436C23.7712 29.1665 25.0658 28.344 26.2282 27.194C28.6078 24.8398 24.7009 22.9584 23.2108 22.037C19.7165 19.8763 15.2828 19.8763 11.7886 22.037Z" stroke="#2A353D" stroke-width="1.5" stroke-linecap="round" stroke-linejoin="round"/>
<path d="M22.6038 10.9374C22.6038 13.7564 20.3186 16.0416 17.4997 16.0416C14.6807 16.0416 12.3955 13.7564 12.3955 10.9374C12.3955 8.11847 14.6807 5.83325 17.4997 5.83325C20.3186 5.83325 22.6038 8.11847 22.6038 10.9374Z" stroke="#2A353D" stroke-width="1.5"/>
</svg>
