<svg width="20" height="20" viewBox="0 0 20 20" fill="none" xmlns="http://www.w3.org/2000/svg">
<g clip-path="url(#clip0_187_2156)">
<path d="M18.3332 18.3334L16.6665 16.6667M9.58317 17.5001C10.6228 17.5001 11.6523 17.2953 12.6127 16.8975C13.5732 16.4996 14.446 15.9165 15.1811 15.1813C15.9162 14.4462 16.4994 13.5735 16.8972 12.613C17.2951 11.6525 17.4998 10.623 17.4998 9.58342C17.4998 8.54378 17.2951 7.51433 16.8972 6.55384C16.4994 5.59334 15.9162 4.72062 15.1811 3.98549C14.446 3.25036 13.5732 2.66722 12.6127 2.26937C11.6523 1.87152 10.6228 1.66675 9.58317 1.66675C7.48354 1.66675 5.4699 2.50082 3.98524 3.98549C2.50058 5.47015 1.6665 7.48378 1.6665 9.58342C1.6665 11.683 2.50058 13.6967 3.98524 15.1813C5.4699 16.666 7.48354 17.5001 9.58317 17.5001V17.5001Z" stroke="white" stroke-width="1.5" stroke-linecap="round" stroke-linejoin="round"/>
</g>
<defs>
<clipPath id="clip0_187_2156">
<rect width="20" height="20" rx="10" fill="white"/>
</clipPath>
</defs>
</svg>
