<svg width="24" height="24" viewBox="0 0 24 24" fill="none" xmlns="http://www.w3.org/2000/svg">
<path d="M22.9573 4.24358C22.9808 6.03492 21.4704 7.50504 19.5838 7.52719C17.6973 7.54935 16.1489 6.11515 16.1254 4.32382C16.102 2.53248 17.6124 1.06236 19.4989 1.04021C21.3855 1.01805 22.9339 2.45225 22.9573 4.24358Z" fill="#F7456E"/>
<path d="M18.4555 10.8345C19.1267 16.7084 21.7617 18.4836 21.7617 18.4836H1C1 18.4836 4.46029 16.1525 4.46029 7.99343C4.46029 6.13865 5.18942 4.35985 6.48728 3.04833C7.78514 1.7368 9.54541 1 11.3809 1C11.7699 1 12.1556 1.03311 12.5343 1.09779" stroke="#3A3A3A" stroke-width="1.5" stroke-linecap="round" stroke-linejoin="round"/>
<path d="M19.4549 7.55634C21.366 7.55634 22.9152 6.08865 22.9152 4.27817C22.9152 2.46769 21.366 1 19.4549 1C17.5438 1 15.9946 2.46769 15.9946 4.27817C15.9946 6.08865 17.5438 7.55634 19.4549 7.55634Z" stroke="#3A3A3A" stroke-width="1.5" stroke-linecap="round" stroke-linejoin="round"/>
<path d="M13.3766 21.7629C13.1738 22.0941 12.8828 22.3691 12.5325 22.5601C12.1823 22.7512 11.7853 22.8518 11.3812 22.8518C10.977 22.8518 10.58 22.7512 10.2298 22.5601C9.87964 22.3691 9.58852 22.0941 9.38574 21.7629" stroke="#3A3A3A" stroke-width="1.5" stroke-linecap="round" stroke-linejoin="round"/>
</svg>
