<svg width="25" height="28" viewBox="0 0 25 28" fill="none" xmlns="http://www.w3.org/2000/svg">
<path d="M6.85164 17.5288C5.37792 18.4827 1.51392 20.4303 3.86736 22.8674C5.01699 24.0579 6.29739 24.9093 7.90715 24.9093H17.0928C18.7026 24.9093 19.983 24.0579 21.1326 22.8674C23.4861 20.4303 19.6221 18.4827 18.1484 17.5288C14.6925 15.2921 10.3075 15.2921 6.85164 17.5288Z" stroke="#2A353D" stroke-width="1.5" stroke-linecap="round" stroke-linejoin="round"/>
<path d="M17.1875 7.35951C17.1875 10.1735 15.0888 12.4546 12.5 12.4546C9.91117 12.4546 7.8125 10.1735 7.8125 7.35951C7.8125 4.54556 9.91117 2.2644 12.5 2.2644C15.0888 2.2644 17.1875 4.54556 17.1875 7.35951Z" stroke="#2A353D" stroke-width="1.5"/>
</svg>
